<svg xmlns="http://www.w3.org/2000/svg" width="1800" height="1240" viewBox="0 0 1800 1240">
<defs>
<linearGradient id="headerGrad" x1="0%" y1="0%" x2="100%" y2="0%"><stop offset="0%" stop-color="#0F3B66"/><stop offset="55%" stop-color="#0B5E6F"/><stop offset="100%" stop-color="#513C80"/></linearGradient>
<marker id="arrow_1F7A5A" markerWidth="12" markerHeight="12" refX="10" refY="6" orient="auto"><path d="M2,2 L10,6 L2,10 Z" fill="#1F7A5A"/></marker>
<marker id="arrow_28966F" markerWidth="12" markerHeight="12" refX="10" refY="6" orient="auto"><path d="M2,2 L10,6 L2,10 Z" fill="#28966F"/></marker>
<marker id="arrow_3178C6" markerWidth="12" markerHeight="12" refX="10" refY="6" orient="auto"><path d="M2,2 L10,6 L2,10 Z" fill="#3178C6"/></marker>
<marker id="arrow_8D68C7" markerWidth="12" markerHeight="12" refX="10" refY="6" orient="auto"><path d="M2,2 L10,6 L2,10 Z" fill="#8D68C7"/></marker>
<marker id="arrow_C2842E" markerWidth="12" markerHeight="12" refX="10" refY="6" orient="auto"><path d="M2,2 L10,6 L2,10 Z" fill="#C2842E"/></marker>
</defs>
<rect x="0" y="0" width="1800" height="1240" fill="#F8FAFC"/>
<rect x="0" y="0" width="1800" height="126" fill="url(#headerGrad)"/>
<text x="62" y="58" font-family="Inter, Arial, sans-serif" font-size="38" font-weight="800" fill="#FFFFFF">fyp_quant: Agentic Research Harness Architecture</text>
<text x="64" y="91" font-family="Inter, Arial, sans-serif" font-size="18" font-weight="500" fill="#DDEBFF">How the repo turns Codex/Claude from chat assistants into a verified research operating system</text>
<text x="1510" y="52" font-family="Inter, Arial, sans-serif" font-size="16" font-weight="700" fill="#DDEBFF">Presentation view</text>
<text x="1510" y="80" font-family="Inter, Arial, sans-serif" font-size="14" fill="#BFD7FF">Editable source: .drawio</text>
<rect x="60" y="160" width="380" height="830" rx="26" fill="#EEF5FF" stroke="#7AA7D9" stroke-width="2"/>
<text x="84" y="198" font-family="Inter, Arial, sans-serif" font-size="24" font-weight="800" fill="#0F172A">Human + Agent Entry</text>
<text x="84" y="225" font-family="Inter, Arial, sans-serif" font-size="15" font-weight="400" fill="#475569">How work enters the repo</text>
<rect x="480" y="160" width="420" height="830" rx="26" fill="#EFFAF6" stroke="#69B99A" stroke-width="2"/>
<text x="504" y="198" font-family="Inter, Arial, sans-serif" font-size="24" font-weight="800" fill="#0F172A">Repo Memory + Control Plane</text>
<text x="504" y="225" font-family="Inter, Arial, sans-serif" font-size="15" font-weight="400" fill="#475569">Small context, strong rules</text>
<rect x="940" y="160" width="420" height="830" rx="26" fill="#FFF6E8" stroke="#D7A75D" stroke-width="2"/>
<text x="964" y="198" font-family="Inter, Arial, sans-serif" font-size="24" font-weight="800" fill="#0F172A">Research Execution Pipeline</text>
<text x="964" y="225" font-family="Inter, Arial, sans-serif" font-size="15" font-weight="400" fill="#475569">What the benchmark runs</text>
<rect x="1400" y="160" width="340" height="830" rx="26" fill="#F7F0FF" stroke="#A88AD8" stroke-width="2"/>
<text x="1424" y="198" font-family="Inter, Arial, sans-serif" font-size="24" font-weight="800" fill="#0F172A">Evidence + Reporting</text>
<text x="1424" y="225" font-family="Inter, Arial, sans-serif" font-size="15" font-weight="400" fill="#475569">What becomes defensible output</text>
<path d="M 250 353 C 250 353, 250 382, 250 382" fill="none" stroke="#3178C6" stroke-width="3" marker-end="url(#arrow_3178C6)" opacity="0.9"/>
<path d="M 250 510 C 250 510, 250 540, 250 540" fill="none" stroke="#3178C6" stroke-width="3" marker-end="url(#arrow_3178C6)" opacity="0.9"/>
<path d="M 250 668 C 250 668, 250 700, 250 700" fill="none" stroke="#3178C6" stroke-width="3" marker-end="url(#arrow_3178C6)" opacity="0.9"/>
<path d="M 410 764 C 460 764, 460 294, 510 294" fill="none" stroke="#3178C6" stroke-width="3" marker-end="url(#arrow_3178C6)" opacity="0.9"/>
<path d="M 690 353 C 690 353, 690 382, 690 382" fill="none" stroke="#28966F" stroke-width="3" marker-end="url(#arrow_28966F)" opacity="0.9"/>
<path d="M 690 500 C 690 500, 690 528, 690 528" fill="none" stroke="#28966F" stroke-width="3" marker-end="url(#arrow_28966F)" opacity="0.9"/>
<path d="M 690 658 C 690 658, 690 688, 690 688" fill="none" stroke="#28966F" stroke-width="3" marker-end="url(#arrow_28966F)" opacity="0.9"/>
<path d="M 690 818 C 690 818, 690 848, 690 848" fill="none" stroke="#28966F" stroke-width="3" marker-end="url(#arrow_28966F)" opacity="0.9"/>
<path d="M 1150 353 C 1150 353, 1150 382, 1150 382" fill="none" stroke="#C2842E" stroke-width="3" marker-end="url(#arrow_C2842E)" opacity="0.9"/>
<path d="M 1150 500 C 1150 500, 1150 528, 1150 528" fill="none" stroke="#C2842E" stroke-width="3" marker-end="url(#arrow_C2842E)" opacity="0.9"/>
<path d="M 1150 646 C 1150 646, 1150 674, 1150 674" fill="none" stroke="#C2842E" stroke-width="3" marker-end="url(#arrow_C2842E)" opacity="0.9"/>
<path d="M 1150 792 C 1150 792, 1150 840, 1150 840" fill="none" stroke="#C2842E" stroke-width="3" marker-end="url(#arrow_C2842E)" opacity="0.9"/>
<path d="M 1330 903 C 1380 903, 1380 300, 1430 300" fill="none" stroke="#C2842E" stroke-width="3" marker-end="url(#arrow_C2842E)" opacity="0.9"/>
<path d="M 1570 365 C 1570 365, 1570 398, 1570 398" fill="none" stroke="#8D68C7" stroke-width="3" marker-end="url(#arrow_8D68C7)" opacity="0.9"/>
<path d="M 1570 528 C 1570 528, 1570 560, 1570 560" fill="none" stroke="#8D68C7" stroke-width="3" marker-end="url(#arrow_8D68C7)" opacity="0.9"/>
<path d="M 1570 682 C 1570 682, 1570 710, 1570 710" fill="none" stroke="#8D68C7" stroke-width="3" marker-end="url(#arrow_8D68C7)" opacity="0.9"/>
<path d="M 1570 840 C 1570 840, 1570 852, 1570 852" fill="none" stroke="#8D68C7" stroke-width="3" marker-end="url(#arrow_8D68C7)" opacity="0.9"/>
<path d="M 690 848 C 690 848, 690 353, 690 353" fill="none" stroke="#1F7A5A" stroke-width="3" marker-end="url(#arrow_1F7A5A)" opacity="0.9"/>
<path d="M 870 907 C 1150 907, 1150 775, 1430 775" fill="none" stroke="#1F7A5A" stroke-width="3" marker-end="url(#arrow_1F7A5A)" opacity="0.9"/>
<rect x="95" y="242" width="320" height="118" rx="18" fill="#0F172A" opacity="0.08"/>
<rect x="90" y="235" width="320" height="118" rx="18" fill="#FFFFFF" stroke="#3178C6" stroke-width="2"/>
<text x="112" y="270" font-family="Inter, Arial, sans-serif" font-size="20" font-weight="700" fill="#102033">Human researcher</text>
<text x="112" y="303" font-family="Inter, Arial, sans-serif" font-size="15" font-weight="400" fill="#334155">- Defines goal</text>
<text x="112" y="324" font-family="Inter, Arial, sans-serif" font-size="15" font-weight="400" fill="#334155">- Handles VPN/MFA/auth</text>
<text x="112" y="345" font-family="Inter, Arial, sans-serif" font-size="15" font-weight="400" fill="#334155">- Approves risky choices</text>
<rect x="95" y="389" width="320" height="128" rx="18" fill="#0F172A" opacity="0.08"/>
<rect x="90" y="382" width="320" height="128" rx="18" fill="#FFFFFF" stroke="#3178C6" stroke-width="2"/>
<text x="112" y="417" font-family="Inter, Arial, sans-serif" font-size="20" font-weight="700" fill="#102033">Agent surfaces</text>
<text x="112" y="450" font-family="Inter, Arial, sans-serif" font-size="15" font-weight="400" fill="#334155">- Codex / Claude / Cursor</text>
<text x="112" y="471" font-family="Inter, Arial, sans-serif" font-size="15" font-weight="400" fill="#334155">- AGENTS.md + PROJECT_LOG</text>
<text x="112" y="492" font-family="Inter, Arial, sans-serif" font-size="15" font-weight="400" fill="#334155">- Ask repo for live state</text>
<rect x="95" y="547" width="320" height="128" rx="18" fill="#0F172A" opacity="0.08"/>
<rect x="90" y="540" width="320" height="128" rx="18" fill="#FFFFFF" stroke="#3178C6" stroke-width="2"/>
<text x="112" y="575" font-family="Inter, Arial, sans-serif" font-size="20" font-weight="700" fill="#102033">CLI + Makefile</text>
<text x="112" y="608" font-family="Inter, Arial, sans-serif" font-size="15" font-weight="400" fill="#334155">- fyp_cli.py</text>
<text x="112" y="629" font-family="Inter, Arial, sans-serif" font-size="15" font-weight="400" fill="#334155">- make agent-check</text>
<text x="112" y="650" font-family="Inter, Arial, sans-serif" font-size="15" font-weight="400" fill="#334155">- report / analyze / cluster</text>
<rect x="95" y="707" width="320" height="128" rx="18" fill="#0F172A" opacity="0.08"/>
<rect x="90" y="700" width="320" height="128" rx="18" fill="#FFFFFF" stroke="#3178C6" stroke-width="2"/>
<text x="112" y="735" font-family="Inter, Arial, sans-serif" font-size="20" font-weight="700" fill="#102033">Task-specific startup</text>
<text x="112" y="768" font-family="Inter, Arial, sans-serif" font-size="15" font-weight="400" fill="#334155">- agent-status</text>
<text x="112" y="789" font-family="Inter, Arial, sans-serif" font-size="15" font-weight="400" fill="#334155">- agent-start --task --agent</text>
<text x="112" y="810" font-family="Inter, Arial, sans-serif" font-size="15" font-weight="400" fill="#334155">- No giant prompt</text>
<rect x="515" y="242" width="360" height="118" rx="18" fill="#0F172A" opacity="0.08"/>
<rect x="510" y="235" width="360" height="118" rx="18" fill="#FFFFFF" stroke="#28966F" stroke-width="2"/>
<text x="532" y="270" font-family="Inter, Arial, sans-serif" font-size="20" font-weight="700" fill="#102033">Single source of truth</text>
<text x="532" y="303" font-family="Inter, Arial, sans-serif" font-size="15" font-weight="400" fill="#334155">- docs/PROJECT_LOG.md</text>
<text x="532" y="324" font-family="Inter, Arial, sans-serif" font-size="15" font-weight="400" fill="#334155">- Decisions + open actions</text>
<text x="532" y="345" font-family="Inter, Arial, sans-serif" font-size="15" font-weight="400" fill="#334155">- Changelog for each change</text>
<rect x="515" y="389" width="360" height="118" rx="18" fill="#0F172A" opacity="0.08"/>
<rect x="510" y="382" width="360" height="118" rx="18" fill="#FFFFFF" stroke="#28966F" stroke-width="2"/>
<text x="532" y="417" font-family="Inter, Arial, sans-serif" font-size="20" font-weight="700" fill="#102033">On-demand context</text>
<text x="532" y="450" font-family="Inter, Arial, sans-serif" font-size="15" font-weight="400" fill="#334155">- docs/agent_tasks/*</text>
<text x="532" y="471" font-family="Inter, Arial, sans-serif" font-size="15" font-weight="400" fill="#334155">- .agents/skills/*</text>
<text x="532" y="492" font-family="Inter, Arial, sans-serif" font-size="15" font-weight="400" fill="#334155">- Load only relevant packet</text>
<rect x="515" y="535" width="360" height="130" rx="18" fill="#0F172A" opacity="0.08"/>
<rect x="510" y="528" width="360" height="130" rx="18" fill="#FFFFFF" stroke="#28966F" stroke-width="2"/>
<text x="532" y="563" font-family="Inter, Arial, sans-serif" font-size="20" font-weight="700" fill="#102033">Context isolation</text>
<text x="532" y="596" font-family="Inter, Arial, sans-serif" font-size="15" font-weight="400" fill="#334155">- .codex/agents/*</text>
<text x="532" y="617" font-family="Inter, Arial, sans-serif" font-size="15" font-weight="400" fill="#334155">- Report / artifact / TC1 / judge</text>
<text x="532" y="638" font-family="Inter, Arial, sans-serif" font-size="15" font-weight="400" fill="#334155">- Findings to main agent</text>
<rect x="515" y="695" width="360" height="130" rx="18" fill="#0F172A" opacity="0.08"/>
<rect x="510" y="688" width="360" height="130" rx="18" fill="#FFFFFF" stroke="#28966F" stroke-width="2"/>
<text x="532" y="723" font-family="Inter, Arial, sans-serif" font-size="20" font-weight="700" fill="#102033">Hooks + CI</text>
<text x="532" y="756" font-family="Inter, Arial, sans-serif" font-size="15" font-weight="400" fill="#334155">- .codex/hooks.json</text>
<text x="532" y="777" font-family="Inter, Arial, sans-serif" font-size="15" font-weight="400" fill="#334155">- .github/workflows/agent-harness.yml</text>
<text x="532" y="798" font-family="Inter, Arial, sans-serif" font-size="15" font-weight="400" fill="#334155">- Warnings + lightweight checks</text>
<rect x="515" y="855" width="360" height="118" rx="18" fill="#0F172A" opacity="0.08"/>
<rect x="510" y="848" width="360" height="118" rx="18" fill="#E6FFF5" stroke="#1F7A5A" stroke-width="2"/>
<text x="532" y="883" font-family="Inter, Arial, sans-serif" font-size="20" font-weight="700" fill="#102033">Finish gate</text>
<text x="532" y="916" font-family="Inter, Arial, sans-serif" font-size="15" font-weight="400" fill="#334155">- make agent-check</text>
<text x="532" y="937" font-family="Inter, Arial, sans-serif" font-size="15" font-weight="400" fill="#334155">- 186 tests</text>
<text x="532" y="958" font-family="Inter, Arial, sans-serif" font-size="15" font-weight="400" fill="#334155">- Redaction + artifact checks</text>
<rect x="975" y="242" width="360" height="118" rx="18" fill="#0F172A" opacity="0.08"/>
<rect x="970" y="235" width="360" height="118" rx="18" fill="#FFFFFF" stroke="#C2842E" stroke-width="2"/>
<text x="992" y="270" font-family="Inter, Arial, sans-serif" font-size="20" font-weight="700" fill="#102033">Experiment config</text>
<text x="992" y="303" font-family="Inter, Arial, sans-serif" font-size="15" font-weight="400" fill="#334155">- configs/default.yaml</text>
<text x="992" y="324" font-family="Inter, Arial, sans-serif" font-size="15" font-weight="400" fill="#334155">- configs/tc1.yaml</text>
<text x="992" y="345" font-family="Inter, Arial, sans-serif" font-size="15" font-weight="400" fill="#334155">- Matched baseline vs NF4</text>
<rect x="975" y="389" width="360" height="118" rx="18" fill="#0F172A" opacity="0.08"/>
<rect x="970" y="382" width="360" height="118" rx="18" fill="#FFFFFF" stroke="#C2842E" stroke-width="2"/>
<text x="992" y="417" font-family="Inter, Arial, sans-serif" font-size="20" font-weight="700" fill="#102033">Model load + generation</text>
<text x="992" y="450" font-family="Inter, Arial, sans-serif" font-size="15" font-weight="400" fill="#334155">- HFModelLoader</text>
<text x="992" y="471" font-family="Inter, Arial, sans-serif" font-size="15" font-weight="400" fill="#334155">- BitsAndBytes NF4</text>
<text x="992" y="492" font-family="Inter, Arial, sans-serif" font-size="15" font-weight="400" fill="#334155">- Greedy decoding</text>
<rect x="975" y="535" width="360" height="118" rx="18" fill="#0F172A" opacity="0.08"/>
<rect x="970" y="528" width="360" height="118" rx="18" fill="#FFFFFF" stroke="#C2842E" stroke-width="2"/>
<text x="992" y="563" font-family="Inter, Arial, sans-serif" font-size="20" font-weight="700" fill="#102033">Benchmark plugins</text>
<text x="992" y="596" font-family="Inter, Arial, sans-serif" font-size="15" font-weight="400" fill="#334155">- HarmBench</text>
<text x="992" y="617" font-family="Inter, Arial, sans-serif" font-size="15" font-weight="400" fill="#334155">- XSTest</text>
<text x="992" y="638" font-family="Inter, Arial, sans-serif" font-size="15" font-weight="400" fill="#334155">- MMLU subset</text>
<rect x="975" y="681" width="360" height="118" rx="18" fill="#0F172A" opacity="0.08"/>
<rect x="970" y="674" width="360" height="118" rx="18" fill="#FFFFFF" stroke="#C2842E" stroke-width="2"/>
<text x="992" y="709" font-family="Inter, Arial, sans-serif" font-size="20" font-weight="700" fill="#102033">Pipeline orchestration</text>
<text x="992" y="742" font-family="Inter, Arial, sans-serif" font-size="15" font-weight="400" fill="#334155">- run_quant_benchmark.py</text>
<text x="992" y="763" font-family="Inter, Arial, sans-serif" font-size="15" font-weight="400" fill="#334155">- run_quant_matrix.py</text>
<text x="992" y="784" font-family="Inter, Arial, sans-serif" font-size="15" font-weight="400" fill="#334155">- Model reuse</text>
<rect x="975" y="847" width="360" height="126" rx="18" fill="#0F172A" opacity="0.08"/>
<rect x="970" y="840" width="360" height="126" rx="18" fill="#FFF9EA" stroke="#C2842E" stroke-width="2"/>
<text x="992" y="875" font-family="Inter, Arial, sans-serif" font-size="20" font-weight="700" fill="#102033">TC1 SLURM execution</text>
<text x="992" y="908" font-family="Inter, Arial, sans-serif" font-size="15" font-weight="400" fill="#334155">- Prefetch on head node</text>
<text x="992" y="929" font-family="Inter, Arial, sans-serif" font-size="15" font-weight="400" fill="#334155">- Compute via sbatch</text>
<text x="992" y="950" font-family="Inter, Arial, sans-serif" font-size="15" font-weight="400" fill="#334155">- Offline HF env vars</text>
<rect x="1435" y="242" width="280" height="130" rx="18" fill="#0F172A" opacity="0.08"/>
<rect x="1430" y="235" width="280" height="130" rx="18" fill="#FFFFFF" stroke="#8D68C7" stroke-width="2"/>
<text x="1452" y="270" font-family="Inter, Arial, sans-serif" font-size="20" font-weight="700" fill="#102033">Immutable raw evidence</text>
<text x="1452" y="303" font-family="Inter, Arial, sans-serif" font-size="15" font-weight="400" fill="#334155">- results/*/*/raw.jsonl</text>
<text x="1452" y="324" font-family="Inter, Arial, sans-serif" font-size="15" font-weight="400" fill="#334155">- results/*/*/summary.json</text>
<text x="1452" y="345" font-family="Inter, Arial, sans-serif" font-size="15" font-weight="400" fill="#334155">- Hash manifest</text>
<rect x="1435" y="405" width="280" height="130" rx="18" fill="#0F172A" opacity="0.08"/>
<rect x="1430" y="398" width="280" height="130" rx="18" fill="#FFFFFF" stroke="#8D68C7" stroke-width="2"/>
<text x="1452" y="433" font-family="Inter, Arial, sans-serif" font-size="20" font-weight="700" fill="#102033">Derived scoring sidecars</text>
<text x="1452" y="466" font-family="Inter, Arial, sans-serif" font-size="15" font-weight="400" fill="#334155">- scores.v2.jsonl</text>
<text x="1452" y="487" font-family="Inter, Arial, sans-serif" font-size="15" font-weight="400" fill="#334155">- scores.judge.*</text>
<text x="1452" y="508" font-family="Inter, Arial, sans-serif" font-size="15" font-weight="400" fill="#334155">- Redacted IDs + booleans</text>
<rect x="1435" y="567" width="280" height="122" rx="18" fill="#0F172A" opacity="0.08"/>
<rect x="1430" y="560" width="280" height="122" rx="18" fill="#FFFFFF" stroke="#8D68C7" stroke-width="2"/>
<text x="1452" y="595" font-family="Inter, Arial, sans-serif" font-size="20" font-weight="700" fill="#102033">Analysis outputs</text>
<text x="1452" y="628" font-family="Inter, Arial, sans-serif" font-size="15" font-weight="400" fill="#334155">- pairwise deltas</text>
<text x="1452" y="649" font-family="Inter, Arial, sans-serif" font-size="15" font-weight="400" fill="#334155">- judge agreement</text>
<text x="1452" y="670" font-family="Inter, Arial, sans-serif" font-size="15" font-weight="400" fill="#334155">- interpretation labels</text>
<rect x="1435" y="717" width="280" height="130" rx="18" fill="#0F172A" opacity="0.08"/>
<rect x="1430" y="710" width="280" height="130" rx="18" fill="#FFFFFF" stroke="#8D68C7" stroke-width="2"/>
<text x="1452" y="745" font-family="Inter, Arial, sans-serif" font-size="20" font-weight="700" fill="#102033">Report builder</text>
<text x="1452" y="778" font-family="Inter, Arial, sans-serif" font-size="15" font-weight="400" fill="#334155">- build_fyp_report.js</text>
<text x="1452" y="799" font-family="Inter, Arial, sans-serif" font-size="15" font-weight="400" fill="#334155">- make report</text>
<text x="1452" y="820" font-family="Inter, Arial, sans-serif" font-size="15" font-weight="400" fill="#334155">- FYP_Report.docx</text>
<rect x="1435" y="859" width="280" height="114" rx="18" fill="#0F172A" opacity="0.08"/>
<rect x="1430" y="852" width="280" height="114" rx="18" fill="#F3EAFE" stroke="#8D68C7" stroke-width="2"/>
<text x="1452" y="887" font-family="Inter, Arial, sans-serif" font-size="20" font-weight="700" fill="#102033">Presentation artifacts</text>
<text x="1452" y="920" font-family="Inter, Arial, sans-serif" font-size="15" font-weight="400" fill="#334155">- Meetup brief</text>
<text x="1452" y="941" font-family="Inter, Arial, sans-serif" font-size="15" font-weight="400" fill="#334155">- Architecture SVG</text>
<text x="1452" y="962" font-family="Inter, Arial, sans-serif" font-size="15" font-weight="400" fill="#334155">- Dashboard / handoff</text>
<rect x="60" y="1028" width="1680" height="118" rx="24" fill="#FFF1F2" stroke="#E06B78" stroke-width="2"/>
<text x="92" y="1070" font-family="Inter, Arial, sans-serif" font-size="23" font-weight="800" fill="#991B1B">Guardrail Contract</text>
<text x="320" y="1058" font-family="Inter, Arial, sans-serif" font-size="16" font-weight="400" fill="#7F1D1D">Raw TC1 artifacts are immutable. Revised scoring writes derived sidecars only.</text>
<text x="320" y="1085" font-family="Inter, Arial, sans-serif" font-size="16" font-weight="400" fill="#7F1D1D">Handoffs and dashboards are redacted. PROJECT_LOG records decisions and every repo change.</text>
<text x="320" y="1112" font-family="Inter, Arial, sans-serif" font-size="16" font-weight="400" fill="#7F1D1D">make agent-check is the final gate: docs sync, project-log discipline, artifact hashes, stale text, redaction, diff check, pytest.</text>
<rect x="60" y="1170" width="1680" height="1" fill="#CBD5E1"/>
<circle cx="72" cy="1192" r="6" fill="#3178C6"/><text x="88" y="1197" font-family="Inter, Arial, sans-serif" font-size="13" fill="#334155">Agent control loop</text>
<circle cx="238" cy="1192" r="6" fill="#C2842E"/><text x="254" y="1197" font-family="Inter, Arial, sans-serif" font-size="13" fill="#334155">Benchmark execution path</text>
<circle cx="448" cy="1192" r="6" fill="#8D68C7"/><text x="464" y="1197" font-family="Inter, Arial, sans-serif" font-size="13" fill="#334155">Evidence/reporting path</text>
<circle cx="640" cy="1192" r="6" fill="#1F7A5A"/><text x="656" y="1197" font-family="Inter, Arial, sans-serif" font-size="13" fill="#334155">Verification feedback</text>
</svg>